<?xml version="1.0" standalone="no"?><!DOCTYPE svg PUBLIC "-//W3C//DTD SVG 1.1//EN" "http://www.w3.org/Graphics/SVG/1.1/DTD/svg11.dtd"><svg t="1677132401578" class="icon" viewBox="0 0 1024 1024" version="1.1" xmlns="http://www.w3.org/2000/svg" p-id="1856" width="200" height="200" xmlns:xlink="http://www.w3.org/1999/xlink"><path d="M825.469388 146.285714a83.591837 83.591837 0 0 1 83.591836 83.591837v501.55102a83.591837 83.591837 0 0 1-83.591836 83.591837H612.895347l-56.570776 56.570776a62.693878 62.693878 0 0 1-85.639836 2.821224l-3.009306-2.821224L411.062857 815.020408H198.530612a83.591837 83.591837 0 0 1-83.487347-79.412245L114.938776 731.428571V229.877551a83.591837 83.591837 0 0 1 83.591836-83.591837z m0 83.591837H198.530612v501.55102h247.181061L512 797.696 578.288327 731.428571H825.469388V229.877551z m-292.571429 83.591837a20.897959 20.897959 0 0 1 20.897959 20.897959v104.489796h104.489796a20.897959 20.897959 0 0 1 20.897959 20.897959v41.795918a20.897959 20.897959 0 0 1-20.897959 20.89796h-104.489796v104.489796a20.897959 20.897959 0 0 1-20.897959 20.897959h-41.795918a20.897959 20.897959 0 0 1-20.897959-20.897959v-104.489796h-104.489796a20.897959 20.897959 0 0 1-20.897959-20.89796v-41.795918a20.897959 20.897959 0 0 1 20.897959-20.897959h104.489796v-104.489796a20.897959 20.897959 0 0 1 20.897959-20.897959h41.795918z" fill="" p-id="1857"></path></svg>
