<?xml version="1.0" standalone="no"?><!DOCTYPE svg PUBLIC "-//W3C//DTD SVG 1.1//EN" "http://www.w3.org/Graphics/SVG/1.1/DTD/svg11.dtd"><svg t="1641366035126" class="icon" viewBox="0 0 1024 1024" version="1.1" xmlns="http://www.w3.org/2000/svg" p-id="9020" width="64" height="64" xmlns:xlink="http://www.w3.org/1999/xlink"><defs><style type="text/css"></style></defs><path d="M623.29792 46.08l354.56 354.624c61.504 61.44 61.504 161.088 0 222.592l-354.56 354.56c-61.44 61.504-161.088 61.504-222.592 0L46.14592 623.36a157.376 157.376 0 0 1 0-222.592L400.64192 46.144c61.44-61.504 161.088-61.504 222.592 0z m-45.248 45.248a93.376 93.376 0 0 0-132.096 0l-354.56 354.624c-36.48 36.48-36.48 95.616 0 132.096l354.56 354.56c36.48 36.48 95.616 36.48 132.096 0l354.56-354.56c36.48-36.48 36.48-95.616 0-132.096l-354.56-354.56z" p-id="9021" fill=""></path><path d="M422.40192 294.4a32 32 0 0 1 32-32h115.2a32 32 0 0 1 32 32v128h128a32 32 0 0 1 32 32v115.2a32 32 0 0 1-32 32h-128v128a32 32 0 0 1-32 32H454.40192a32 32 0 0 1-32-32v-128h-128a32 32 0 0 1-32-32V454.4a32 32 0 0 1 32-32h128v-128z m25.6 128l-25.6 25.6v-25.6H448.00192z m25.6 51.2H313.60192v76.8h160v160h76.8V550.4h160V473.6H550.40192V313.6H473.60192v160z" p-id="9022" fill=""></path></svg>
