<?xml version="1.0" standalone="no"?><!DOCTYPE svg PUBLIC "-//W3C//DTD SVG 1.1//EN" "http://www.w3.org/Graphics/SVG/1.1/DTD/svg11.dtd"><svg t="1678672828351" class="icon" viewBox="0 0 1024 1024" version="1.1" xmlns="http://www.w3.org/2000/svg" p-id="40867" xmlns:xlink="http://www.w3.org/1999/xlink" width="200" height="200"><path d="M818.858667 312.746667a73.927111 73.927111 0 0 1 73.841777 73.841777V795.733333a73.927111 73.927111 0 0 1-73.841777 73.841778H205.141333a73.927111 73.927111 0 0 1-73.841777-73.841778V386.588444a73.927111 73.927111 0 0 1 73.841777-73.841777h613.717334m0-28.444445H205.141333a102.286222 102.286222 0 0 0-102.286222 102.286222V795.733333a102.286222 102.286222 0 0 0 102.286222 102.286223h613.717334a102.286222 102.286222 0 0 0 102.286222-102.286223V386.588444a102.286222 102.286222 0 0 0-102.286222-102.286222zM730.794667 253.312h-79.587556v-65.379556a36.949333 36.949333 0 0 0-36.920889-36.920888H409.713778a36.949333 36.949333 0 0 0-36.920889 36.920888v65.379556h-79.587556v-65.379556c0-64.241778 52.266667-116.494222 116.508445-116.494222h204.572444c64.241778 0 116.494222 52.266667 116.494222 116.494222v65.379556z m-51.143111-28.444444h22.698666v-36.935112a88.149333 88.149333 0 0 0-88.049778-88.049777H409.713778a88.149333 88.149333 0 0 0-88.064 88.049777v36.935112h22.698666v-36.935112a65.450667 65.450667 0 0 1 65.365334-65.365333h204.572444a65.450667 65.450667 0 0 1 65.365334 65.365333v36.935112z" fill="" p-id="40868"></path><path d="M577.365333 758.812444h-130.730666v-102.286222h-102.286223V525.795556h102.286223v-102.272h130.730666v102.272h102.286223v130.730666h-102.286223v102.286222z m-102.286222-28.444444h73.841778v-102.286222h102.286222V554.24h-102.286222v-102.272h-73.841778v102.272h-102.286222v73.841778h102.286222v102.286222z" fill="" p-id="40869"></path></svg>
