<?xml version="1.0" standalone="no"?><!DOCTYPE svg PUBLIC "-//W3C//DTD SVG 1.1//EN" "http://www.w3.org/Graphics/SVG/1.1/DTD/svg11.dtd"><svg t="1675654692651" class="icon" viewBox="0 0 1024 1024" version="1.1" xmlns="http://www.w3.org/2000/svg" p-id="1983" width="200" height="200" xmlns:xlink="http://www.w3.org/1999/xlink"><path d="M944.128 316.416h-48.128v-96.256c0-1.024 0-2.048-1.024-4.096 0-1.024 0-2.048-1.024-2.048 0-1.024-1.024-2.048-2.048-2.048-1.024-1.024-1.024-2.048-2.048-3.072 0 0-1.024-1.024-2.048-1.024-1.024-1.024-2.048-2.048-3.072-2.048-2.048-1.024-50.176-18.432-117.76-25.6v-7.168c0-4.096-4.096-8.192-8.192-8.192h-79.872c-4.096 0-8.192 4.096-8.192 8.192v6.144c-58.368 5.12-112.64 23.552-158.72 53.248-163.84-106.496-365.568-30.72-373.76-27.648-1.024 0-2.048 1.024-3.072 2.048-1.024 0-1.024 1.024-2.048 1.024-1.024 1.024-1.024 2.048-2.048 3.072l-2.048 2.048c0 1.024 0 2.048-1.024 2.048 0 1.024-1.024 2.048-1.024 4.096v96.256H79.872c-9.216 0-16.384 7.168-16.384 16.384v512c0 9.216 7.168 16.384 16.384 16.384h864.256c9.216 0 16.384-7.168 16.384-16.384v-512c0-8.192-7.168-15.36-16.384-15.36z m-847.872 512V348.16h31.744V765.952c0 1.024 0 1.024 1.024 2.048 0 1.024 1.024 2.048 1.024 3.072 0 1.024 1.024 2.048 2.048 2.048 1.024 1.024 1.024 2.048 2.048 2.048l2.048 2.048c1.024 0 2.048 1.024 3.072 1.024 1.024 0 2.048 0 3.072 1.024h4.096c2.048 0 245.76-41.984 343.04 48.128l-393.216 1.024z m399.36-36.864c-98.304-71.68-277.504-54.272-335.872-46.08V231.424c41.984-13.312 205.824-56.32 335.872 29.696v530.432z m192.512-583.68v-27.648h64.512v254.976L727.04 399.36c-1.024-2.048-4.096-3.072-6.144-3.072-3.072 0-5.12 1.024-6.144 3.072l-25.6 35.84V207.872z m-159.744 52.224c40.96-27.648 90.112-44.032 144.384-50.176v248.832c0 3.072 2.048 6.144 5.12 7.168 3.072 1.024 7.168 0 9.216-3.072l33.792-47.104 33.792 47.104c1.024 2.048 4.096 3.072 6.144 3.072h2.048c3.072-1.024 5.12-4.096 5.12-7.168V210.944c44.032 5.12 79.872 15.36 96.256 20.48v514.048c-58.368-8.192-237.568-25.6-335.872 46.08V260.096z m399.36 568.32H534.528c97.28-90.112 339.968-49.152 343.04-48.128h4.096c1.024 0 2.048 0 3.072-1.024 1.024 0 2.048-1.024 3.072-1.024 1.024 0 2.048-1.024 2.048-2.048l2.048-2.048c1.024-1.024 1.024-2.048 2.048-2.048 0-1.024 1.024-2.048 1.024-3.072 0-1.024 0-1.024 1.024-2.048v-1.024V348.16h31.744v480.256z m0 0" p-id="1984" fill=""></path><path d="M944.128 862.208H79.872c-10.24 0-17.408-8.192-17.408-17.408v-512c0-10.24 8.192-17.408 17.408-17.408h46.08v-95.232c0-1.024 0-2.048 1.024-3.072v-1.024-2.048c0-1.024 1.024-2.048 2.048-2.048v-1.024c0-1.024 1.024-1.024 2.048-2.048l1.024-1.024h1.024c1.024-1.024 2.048-2.048 3.072-2.048 8.192-3.072 210.944-78.848 373.76 27.648 46.08-29.696 99.328-48.128 158.72-54.272V174.08c0-5.12 4.096-9.216 9.216-9.216H757.76c5.12 0 9.216 4.096 9.216 9.216v5.12c65.536 7.168 111.616 24.576 116.736 25.6 1.024 1.024 2.048 1.024 3.072 2.048h2.048l1.024 1.024c1.024 1.024 1.024 1.024 1.024 2.048v1.024l1.024 1.024c0 1.024 1.024 1.024 1.024 2.048s0 1.024 1.024 2.048v2.048c0 1.024 1.024 2.048 1.024 3.072V316.416h46.08c10.24 0 17.408 8.192 17.408 17.408v512c3.072 8.192-5.12 16.384-14.336 16.384zM79.872 317.44c-8.192 0-14.336 6.144-14.336 14.336v512c0 8.192 6.144 14.336 14.336 14.336h864.256c8.192 0 14.336-6.144 14.336-14.336v-512c0-8.192-6.144-14.336-14.336-14.336h-50.176v-98.304-4.096-1.024-1.024c0-1.024-1.024-1.024-1.024-1.024s0-1.024-1.024-1.024H890.88c0-1.024-1.024-1.024-1.024-1.024h-1.024s-1.024 0-1.024-1.024c-1.024-1.024-1.024-1.024-2.048-1.024-4.096-2.048-51.2-18.432-116.736-25.6H768V174.08c0-3.072-3.072-6.144-6.144-6.144h-79.872c-3.072 0-6.144 3.072-6.144 6.144v8.192h-2.048c-59.392 6.144-113.664 24.576-158.72 54.272l-3.072-2.048-1.024-1.024c-162.816-105.472-363.52-30.72-371.712-27.648-1.024 0-2.048 1.024-2.048 2.048l-1.024 1.024h-1.024l-1.024 1.024s0 1.024-1.024 1.024l-1.024 1.024c0 1.024-1.024 1.024-1.024 1.024V317.44h-51.2z m849.92 512h-399.36l3.072-3.072c98.304-91.136 342.016-49.152 344.064-48.128h4.096c1.024 0 2.048 0 3.072-1.024 1.024 0 2.048-1.024 2.048-1.024 1.024 0 1.024-1.024 2.048-1.024l2.048-2.048 2.048-2.048c0-1.024 1.024-2.048 1.024-3.072v-1.024-1.024-1.024-418.816h35.84V829.44z m-391.168-3.072h388.096V349.184h-28.672V768c0 1.024-1.024 2.048-1.024 3.072 0 1.024-1.024 2.048-2.048 3.072l-2.048 2.048c-1.024 1.024-2.048 1.024-3.072 2.048-1.024 1.024-2.048 1.024-3.072 1.024-1.024 0-2.048 1.024-3.072 1.024H880.64h-1.024c-5.12 1.024-241.664-39.936-340.992 46.08z m-44.032 3.072H96.256v-2.048h-2.048v-481.28h35.84V768c0 1.024 1.024 2.048 1.024 3.072 0 1.024 1.024 2.048 1.024 2.048l2.048 2.048c1.024 1.024 1.024 1.024 2.048 1.024s2.048 1.024 3.072 1.024h7.168c2.048 0 246.784-41.984 345.088 48.128l3.072 4.096z m-397.312-3.072h388.096c-98.304-86.016-335.872-45.056-337.92-45.056H143.36h-1.024c-1.024 0-2.048 0-3.072-1.024-1.024 0-2.048-1.024-3.072-1.024-2.048-1.024-2.048-1.024-3.072-2.048-1.024-1.024-2.048-1.024-2.048-2.048-1.024-1.024-2.048-2.048-2.048-3.072 0-1.024-1.024-2.048-1.024-3.072 0 0 0-1.024-1.024-1.024v-1.024V349.184H97.28v477.184z m400.384-30.72l-3.072-2.048c-98.304-71.68-281.6-53.248-334.848-46.08h-2.048V230.4h1.024c46.08-14.336 207.872-56.32 337.92 29.696l1.024 1.024v534.528z m-225.28-59.392c72.704 0 161.792 10.24 222.208 52.224V261.12c-126.976-82.944-285.696-44.032-332.8-28.672v510.976c21.504-3.072 62.464-7.168 110.592-7.168z m253.952 59.392v-532.48H522.24l5.12-3.072c41.984-27.648 90.112-44.032 144.384-50.176h2.048V460.8c0 3.072 2.048 5.12 4.096 6.144 3.072 1.024 5.12 0 7.168-2.048l34.816-49.152 34.816 49.152c2.048 2.048 5.12 3.072 7.168 2.048 3.072-1.024 4.096-3.072 4.096-6.144V208.896h2.048c44.032 5.12 78.848 14.336 96.256 20.48h1.024V747.52h-2.048c-53.248-7.168-236.544-25.6-334.848 46.08l-2.048 2.048z m3.072-534.528V788.48c98.304-69.632 276.48-52.224 332.8-45.056V232.448c-17.408-5.12-50.176-14.336-92.16-19.456v246.784c0 4.096-3.072 8.192-7.168 9.216h-3.072c-3.072 0-6.144-2.048-8.192-4.096L719.872 419.84l-31.744 45.056c-2.048 3.072-7.168 5.12-11.264 4.096-4.096-1.024-7.168-5.12-7.168-9.216V212.992c-52.224 5.12-99.328 21.504-140.288 48.128zM753.664 440.32l-28.672-39.936c-2.048-3.072-8.192-3.072-10.24 0L686.08 440.32V178.176h67.584V440.32z m-63.488-259.072V430.08l22.528-31.744c2.048-3.072 5.12-4.096 8.192-4.096 3.072 0 6.144 1.024 8.192 4.096l22.528 31.744V181.248h-61.44z" p-id="1985" fill=""></path><path d="M222.208 287.744c-4.096 1.024-7.168 5.12-6.144 9.216 1.024 4.096 5.12 7.168 9.216 6.144 2.048 0 161.792-25.6 217.088 33.792 2.048 2.048 4.096 3.072 6.144 3.072 2.048 0 4.096-1.024 5.12-2.048 3.072-3.072 3.072-8.192 0-11.264-60.416-66.56-224.256-39.936-231.424-38.912z m0 63.488c-4.096 1.024-7.168 5.12-6.144 9.216 1.024 4.096 5.12 7.168 9.216 6.144 2.048 0 161.792-25.6 217.088 33.792 2.048 2.048 4.096 3.072 6.144 3.072 2.048 0 4.096-1.024 5.12-2.048 3.072-3.072 3.072-8.192 0-11.264-60.416-65.536-224.256-39.936-231.424-38.912z m0 0" p-id="1986" fill=""></path><path d="M447.488 405.504c-3.072 0-5.12-1.024-7.168-3.072-51.2-56.32-198.656-35.84-215.04-33.792-2.048 0-5.12 0-7.168-2.048-2.048-1.024-3.072-4.096-4.096-6.144 0-3.072 0-5.12 2.048-7.168 1.024-2.048 4.096-3.072 6.144-4.096 17.408-3.072 173.056-25.6 232.448 39.936 2.048 2.048 3.072 4.096 3.072 7.168 0 3.072-1.024 5.12-3.072 7.168-2.048 1.024-4.096 2.048-7.168 2.048z m-144.384-45.056c50.176 0 110.592 7.168 140.288 39.936 2.048 2.048 6.144 3.072 9.216 0 3.072-2.048 3.072-6.144 0-9.216-24.576-26.624-70.656-41.984-134.144-44.032-47.104-1.024-87.04 4.096-95.232 6.144-2.048 0-3.072 1.024-4.096 2.048-1.024 1.024-1.024 3.072-1.024 5.12s1.024 3.072 3.072 4.096c1.024 1.024 3.072 1.024 5.12 1.024h1.024c5.12-1.024 36.864-5.12 75.776-5.12z m144.384-18.432c-3.072 0-5.12-1.024-7.168-3.072-51.2-56.32-198.656-35.84-215.04-33.792-3.072 0-5.12 0-7.168-2.048-2.048-1.024-3.072-4.096-4.096-6.144 0-3.072 0-5.12 2.048-7.168 1.024-2.048 4.096-3.072 6.144-4.096 17.408-3.072 173.056-25.6 232.448 39.936 2.048 2.048 3.072 4.096 3.072 7.168 0 3.072-1.024 5.12-3.072 7.168-2.048 1.024-4.096 2.048-7.168 2.048z m-144.384-46.08c50.176 0 110.592 7.168 140.288 39.936 2.048 2.048 6.144 3.072 9.216 0 3.072-2.048 3.072-6.144 0-9.216-24.576-26.624-70.656-41.984-134.144-44.032-47.104-2.048-87.04 4.096-95.232 6.144-2.048 0-3.072 1.024-4.096 2.048-1.024 1.024-1.024 3.072-1.024 5.12s1.024 3.072 3.072 4.096c1.024 1.024 3.072 1.024 5.12 1.024 6.144 0 37.888-5.12 76.8-5.12z" p-id="1987" fill=""></path></svg>
