<?xml version="1.0" standalone="no"?><!DOCTYPE svg PUBLIC "-//W3C//DTD SVG 1.1//EN" "http://www.w3.org/Graphics/SVG/1.1/DTD/svg11.dtd"><svg t="1679279549135" class="icon" viewBox="0 0 1024 1024" version="1.1" xmlns="http://www.w3.org/2000/svg" p-id="58290" xmlns:xlink="http://www.w3.org/1999/xlink" width="200" height="200"><path d="M437.333333 526.933333c-12.8 0-23.466667 14.933333-23.466666 32v192c0 17.066667 10.666667 32 23.466666 32s23.466667-14.933333 23.466667-32v-192c0-19.2-10.666667-32-23.466667-32z" fill="" p-id="58291"></path><path d="M533.333333 206.933333c12.8 0 23.466667-14.933333 23.466667-32v-64c0-17.066667-10.666667-32-23.466667-32s-23.466667 14.933333-23.466666 32v64c0 17.066667 10.666667 32 23.466666 32zM770.133333 266.666667l44.8-44.8c12.8-12.8 14.933333-29.866667 6.4-38.4-8.533333-8.533333-25.6-6.4-38.4 6.4l-44.8 42.666666c-12.8 12.8-14.933333 29.866667-6.4 38.4 8.533333 10.666667 27.733333 6.4 38.4-4.266666zM302.933333 266.666667c12.8 12.8 29.866667 14.933333 38.4 6.4 8.533333-8.533333 6.4-25.6-6.4-38.4l-44.8-44.8c-12.8-12.8-29.866667-14.933333-38.4-6.4-8.533333 8.533333-6.4 25.6 6.4 38.4l44.8 44.8zM134.4 469.333333h64c17.066667 0 32-10.666667 32-23.466666s-14.933333-23.466667-32-23.466667h-64c-17.066667 0-32 10.666667-32 23.466667S115.2 469.333333 134.4 469.333333zM870.4 469.333333h64c17.066667 0 32-10.666667 32-23.466666s-14.933333-23.466667-32-23.466667h-64c-17.066667 0-32 10.666667-32 23.466667s12.8 23.466667 32 23.466666zM962.133333 893.866667c2.133333-4.266667 4.266667-8.533333 4.266667-14.933334 0-17.066667-14.933333-32-32-32H789.333333v-320c0-140.8-115.2-256-256-256s-256 115.2-256 256v320H134.4c-17.066667 0-32 14.933333-32 32 0 6.4 2.133333 10.666667 4.266667 14.933334h855.466666zM326.4 520.533333c0-115.2 93.866667-209.066667 209.066667-209.066666s209.066667 93.866667 209.066666 209.066666v347.733334H326.4V520.533333z" fill="" p-id="58292"></path><path d="M270.933333 846.933333H810.666667v21.333334H270.933333z" fill="" p-id="58293"></path></svg>
