<?xml version="1.0" standalone="no"?><!DOCTYPE svg PUBLIC "-//W3C//DTD SVG 1.1//EN" "http://www.w3.org/Graphics/SVG/1.1/DTD/svg11.dtd"><svg t="1673850804387" class="icon" viewBox="0 0 1024 1024" version="1.1" xmlns="http://www.w3.org/2000/svg" p-id="8847" xmlns:xlink="http://www.w3.org/1999/xlink" width="200" height="200"><path d="M512 0C229.696 0 0 229.696 0 512c0 282.283 229.696 512 512 512 282.283 0 512-229.717 512-512C1024 229.696 794.283 0 512 0z m0 981.27C253.27 981.27 42.73 770.73 42.73 512S253.27 42.73 512 42.73 981.27 253.27 981.27 512 770.73 981.27 512 981.27z" p-id="8848" fill=""></path><path d="M608.384 507.35c57.707-33.43 96.704-95.723 96.704-167.062C705.088 233.835 618.453 147.2 512 147.2s-193.088 86.613-193.088 193.088c0 71.339 38.997 133.632 96.725 167.061C302.336 547.264 220.8 655.061 220.8 781.824c0 11.861 9.557 21.376 21.355 21.376 11.797 0 21.354-9.515 21.354-21.376 0-137.003 111.488-248.448 248.491-248.448s248.448 111.467 248.448 248.448a21.319 21.319 0 0 0 21.376 21.376c11.861 0 21.376-9.515 21.419-21.376 0-126.763-81.579-234.581-194.859-274.475zM361.643 340.266c0-82.902 67.456-150.358 150.357-150.358 82.923 0 150.357 67.456 150.357 150.358 0 82.901-67.434 150.357-150.357 150.357-82.901 0-150.357-67.456-150.357-150.357z" p-id="8849" fill=""></path></svg>
