<?xml version="1.0" standalone="no"?><!DOCTYPE svg PUBLIC "-//W3C//DTD SVG 1.1//EN" "http://www.w3.org/Graphics/SVG/1.1/DTD/svg11.dtd"><svg t="1673850480021" class="icon" viewBox="0 0 1024 1024" version="1.1" xmlns="http://www.w3.org/2000/svg" p-id="7050" xmlns:xlink="http://www.w3.org/1999/xlink" width="200" height="200"><path d="M817.92 146.56A815.36 815.36 0 0 0 512 97.28a815.36 815.36 0 0 0-305.92 49.28q-128 57.6-128 131.2v508.16c0 49.28 43.52 98.56 128 128a713.6 713.6 0 0 0 305.92 58.24 815.36 815.36 0 0 0 305.92-49.28c81.92-32.64 128-81.92 128-131.2v-512q0-73.6-128-131.2zM768 370.56a768 768 0 0 1-256 38.4 746.88 746.88 0 0 1-256-38.4c-83.2-21.76-120.96-54.4-120.96-92.8s43.52-64 120.32-92.8a915.84 915.84 0 0 1 256-32.64A938.88 938.88 0 0 1 768 192c76.8 27.52 120.32 60.16 120.32 92.8s-38.4 64-120.32 87.68z m5.76 158.72a947.2 947.2 0 0 1-262.4 38.4 979.84 979.84 0 0 1-262.4-38.4C172.8 501.76 128 469.12 128 436.48v-60.16a743.04 743.04 0 0 0 152.96 60.16A1016.32 1016.32 0 0 0 512 464a1016.32 1016.32 0 0 0 229.76-27.52A743.04 743.04 0 0 0 896 376.32v64c0 27.52-43.52 60.16-120.32 87.68z m0 174.72a947.2 947.2 0 0 1-262.4 38.4A979.84 979.84 0 0 1 249.6 704C172.8 682.24 128 649.6 128 611.2V529.28a760.32 760.32 0 0 0 152.96 64A1016.32 1016.32 0 0 0 512 622.08a1016.32 1016.32 0 0 0 229.76-27.52 760.32 760.32 0 0 0 152.96-64v80.64c0 38.4-43.52 71.04-120.32 92.8zM512 917.76a979.84 979.84 0 0 1-262.4-38.4C172.8 857.6 128 824.32 128 791.68v-81.92a759.68 759.68 0 0 0 152.96 64 967.68 967.68 0 0 0 224 27.52 1016.32 1016.32 0 0 0 229.76-27.52 689.28 689.28 0 0 0 158.72-64v81.92c0 32.64-43.52 64-120.32 92.8a984.96 984.96 0 0 1-262.4 32.64z m0 0" fill="" p-id="7051"></path></svg>
