<?xml version="1.0" standalone="no"?><!DOCTYPE svg PUBLIC "-//W3C//DTD SVG 1.1//EN" "http://www.w3.org/Graphics/SVG/1.1/DTD/svg11.dtd"><svg t="1678699002160" class="icon" viewBox="0 0 1024 1024" version="1.1" xmlns="http://www.w3.org/2000/svg" p-id="42765" xmlns:xlink="http://www.w3.org/1999/xlink" width="200" height="200"><path d="M512.548 68.268c-245.021 0-443.65 198.629-443.65 443.65s198.629 443.65 443.65 443.65 443.65-198.629 443.65-443.65-198.629-443.65-443.65-443.65z m292.495 736.145c-37.999 37.999-82.239 67.828-131.493 88.661-50.977 21.562-105.146 32.494-161.002 32.494-55.856 0-110.025-10.933-161.002-32.494-49.254-20.833-93.494-50.662-131.493-88.661-37.999-37.999-67.829-82.239-88.661-131.493-21.562-50.977-32.494-105.146-32.494-161.002s10.933-110.025 32.494-161.002c20.833-49.254 50.662-93.494 88.661-131.493 37.999-37.999 82.239-67.828 131.493-88.661 50.977-21.562 105.146-32.494 161.002-32.494 55.856 0 110.025 10.933 161.002 32.494 49.254 20.833 93.494 50.662 131.493 88.661 37.999 37.999 67.828 82.239 88.661 131.493 21.562 50.977 32.494 105.146 32.494 161.002s-10.933 110.025-32.494 161.002c-20.833 49.254-50.663 93.494-88.661 131.493z" fill="" p-id="42766"></path><path d="M512.548 419.532c63.36 0 114.723-51.363 114.723-114.723s-51.363-114.723-114.723-114.723S397.825 241.45 397.825 304.81s51.364 114.722 114.723 114.722z m0-199.445c46.716 0 84.723 38.006 84.723 84.723s-38.006 84.723-84.723 84.723-84.723-38.006-84.723-84.723 38.007-84.723 84.723-84.723zM512.548 419.581c-121.145 0-219.352 98.207-219.352 219.352s98.207 219.352 219.352 219.352S731.9 760.078 731.9 638.933s-98.207-219.352-219.352-219.352zM646.44 772.825c-35.764 35.764-83.314 55.46-133.892 55.46s-98.128-19.696-133.892-55.46c-35.764-35.764-55.46-83.314-55.46-133.892s19.696-98.128 55.46-133.892c35.764-35.764 83.314-55.46 133.892-55.46s98.128 19.696 133.892 55.46c35.764 35.764 55.46 83.314 55.46 133.892s-19.696 98.128-55.46 133.892z" fill="" p-id="42767"></path><path d="M608.789 573.544v-36.608c0-8.284-6.716-15-15-15s-15 6.716-15 15v36.608H542.18c-8.284 0-15 6.716-15 15s6.716 15 15 15h36.609v36.609c0 8.284 6.716 15 15 15s15-6.716 15-15v-36.609h36.608c8.284 0 15-6.716 15-15s-6.716-15-15-15h-36.608z" fill="" p-id="42768"></path></svg>
