<?xml version="1.0" standalone="no"?><!DOCTYPE svg PUBLIC "-//W3C//DTD SVG 1.1//EN" "http://www.w3.org/Graphics/SVG/1.1/DTD/svg11.dtd"><svg t="1678762020770" class="icon" viewBox="0 0 1024 1024" version="1.1" xmlns="http://www.w3.org/2000/svg" p-id="51560" xmlns:xlink="http://www.w3.org/1999/xlink" width="200" height="200"><path d="M512 1024c282.768 0 512-229.232 512-512C1024 229.232 794.768 0 512 0 229.232 0 0 229.232 0 512c0 282.768 229.232 512 512 512z m185.744-816C726.96 208 752 232.24 752 264.56v494.88C752 789.76 726.96 816 697.744 816H326.24A58.432 58.432 0 0 1 272 757.424V264.56C272 232.24 297.04 208 326.256 208H697.76zM504 672c-31.36 0-56 21.12-56 48s24.64 48 56 48 56-21.12 56-48-24.64-48-56-48zM656 272.64H368c-16.688 0-31.312 14.144-31.312 30.304v274.704c0 16.16 14.624 30.304 31.312 30.304h288v-2.032c16.688 0 31.312-14.128 31.312-30.288V302.944c0-16.16-14.624-30.304-31.312-30.304z m-91.84 56.56c12.528 0 20.88 8.08 20.88 20.192 0 12.128-8.352 20.208-20.864 20.208h-104.352c-12.512 0-20.864-8.08-20.864-20.208 0-12.112 8.352-20.192 20.864-20.192h104.352z" p-id="51561" fill=""></path></svg>
