<?xml version="1.0" standalone="no"?><!DOCTYPE svg PUBLIC "-//W3C//DTD SVG 1.1//EN" "http://www.w3.org/Graphics/SVG/1.1/DTD/svg11.dtd"><svg t="1678961752467" class="icon" viewBox="0 0 1024 1024" version="1.1" xmlns="http://www.w3.org/2000/svg" p-id="51838" xmlns:xlink="http://www.w3.org/1999/xlink" width="200" height="200"><path d="M864.3 107.9h-43.5V92.1c0-6.9-5.6-12.6-12.6-12.6h-1.1c-6.9 0-12.6 5.6-12.6 12.6v15.8H627.2V92.7c0-7.3-5.9-13.1-13.1-13.1-7.3 0-13.1 5.9-13.1 13.1v15.2H433.5V92.7c0-7.3-5.9-13.1-13.1-13.1-7.3 0-13.1 5.9-13.1 13.1v15.2H239.9V92.7c0-7.3-5.9-13.1-13.1-13.1-7.3 0-13.1 5.9-13.1 13.1v15.2h-53.3c-52.7 0-95.5 42.9-95.5 95.5v641.7c0 52.7 42.9 95.5 95.5 95.5h704c52.7 0 95.5-42.9 95.5-95.5V203.4c-0.1-52.6-42.9-95.5-95.6-95.5z m-771 179.4V203.4c0-36.9 30-66.9 66.9-66.9h53.3v11.9c0 7.3 5.9 13.1 13.1 13.1 7.3 0 13.1-5.9 13.1-13.1v-11.9h167.4v11.9c0 7.3 5.9 13.1 13.1 13.1 7.3 0 13.1-5.9 13.1-13.1v-11.9h167.4v11.9c0 7.3 5.9 13.1 13.1 13.1 7.3 0 13.1-5.9 13.1-13.1v-11.9h167.4V149c0 6.9 5.6 12.6 12.6 12.6h1.1c7 0 12.6-5.6 12.6-12.6v-12.5h43.5c36.9 0 66.9 30 66.9 66.9V329.6H93.3v-42.3z m837.9 198.2v359.7c0 36.9-30 66.9-66.9 66.9h-704c-36.9 0-66.9-30-66.9-66.9V358.3h837.9V485.5z" fill="" p-id="51839"></path><path d="M285.4 491.6h-27.5c-15.9 0-28.8 12.9-28.8 28.8v27.5c0 15.9 12.9 28.8 28.8 28.8h27.5c15.9 0 28.8-12.9 28.8-28.8v-27.5c0.1-15.9-12.8-28.8-28.8-28.8zM526 491.6h-27.5c-15.9 0-28.8 12.9-28.8 28.8v27.5c0 15.9 12.9 28.8 28.8 28.8H526c15.9 0 28.8-12.9 28.8-28.8v-27.5c0.1-15.9-12.8-28.8-28.8-28.8zM766.6 491.6h-27.5c-15.9 0-28.8 12.9-28.8 28.8v27.5c0 15.9 12.9 28.8 28.8 28.8h27.5c15.9 0 28.8-12.9 28.8-28.8v-27.5c0.1-15.9-12.8-28.8-28.8-28.8zM285.4 704.9h-27.5c-15.9 0-28.8 12.9-28.8 28.8v27.5c0 15.9 12.9 28.8 28.8 28.8h27.5c15.9 0 28.8-12.9 28.8-28.8v-27.5c0.1-15.9-12.8-28.8-28.8-28.8zM526 704.9h-27.5c-15.9 0-28.8 12.9-28.8 28.8v27.5c0 15.9 12.9 28.8 28.8 28.8H526c15.9 0 28.8-12.9 28.8-28.8v-27.5c0.1-15.9-12.8-28.8-28.8-28.8zM766.6 704.9h-27.5c-15.9 0-28.8 12.9-28.8 28.8v27.5c0 15.9 12.9 28.8 28.8 28.8h27.5c15.9 0 28.8-12.9 28.8-28.8v-27.5c0.1-15.9-12.8-28.8-28.8-28.8z" fill="" p-id="51840"></path></svg>
