<?xml version="1.0" standalone="no"?><!DOCTYPE svg PUBLIC "-//W3C//DTD SVG 1.1//EN" "http://www.w3.org/Graphics/SVG/1.1/DTD/svg11.dtd"><svg t="1678699107719" class="icon" viewBox="0 0 1024 1024" version="1.1" xmlns="http://www.w3.org/2000/svg" p-id="43056" xmlns:xlink="http://www.w3.org/1999/xlink" width="200" height="200"><path d="M512 170.666667a128 128 0 1 0 0 256 128 128 0 0 0 0-256z m-213.333333 128c0-117.824 95.509333-213.333333 213.333333-213.333334s213.333333 95.509333 213.333333 213.333334-95.509333 213.333333-213.333333 213.333333-213.333333-95.509333-213.333333-213.333333zM192 746.922667a645.696 645.696 0 0 1 80.981333-47.296C334.592 669.376 418.688 640 512 640v-85.333333c-110.677333 0-207.936 34.624-276.629333 68.373333a731.264 731.264 0 0 0-81.664 46.762667 556.458667 556.458667 0 0 0-28.650667 20.352l-1.706667 1.344-0.533333 0.405333-0.170667 0.128-0.042666 0.064h-0.042667L149.333333 725.333333l-26.794666-33.216A42.666667 42.666667 0 0 0 106.666667 725.333333v170.666667a42.666667 42.666667 0 0 0 42.666666 42.666667h362.666667v-85.333334H192v-106.410666z m-15.936 11.669333z" fill="" p-id="43057"></path><path d="M576 704h341.333333v85.333333H576v-85.333333z" fill="" p-id="43058"></path><path d="M789.333333 576v341.333333h-85.333333V576h85.333333z" fill="" p-id="43059"></path></svg>
