<?xml version="1.0" standalone="no"?><!DOCTYPE svg PUBLIC "-//W3C//DTD SVG 1.1//EN" "http://www.w3.org/Graphics/SVG/1.1/DTD/svg11.dtd"><svg t="1641366132093" class="icon" viewBox="0 0 1024 1024" version="1.1" xmlns="http://www.w3.org/2000/svg" p-id="9301" width="64" height="64" xmlns:xlink="http://www.w3.org/1999/xlink"><defs><style type="text/css"></style></defs><path d="M844.8 665.6c-15.36 0-25.6 10.24-25.6 25.6v204.8h-614.4v-204.8c0-15.36-10.24-25.6-25.6-25.6s-25.6 10.24-25.6 25.6v204.8c0 28.16 23.04 51.2 51.2 51.2h614.4c28.16 0 51.2-23.04 51.2-51.2v-204.8c0-15.36-10.24-25.6-25.6-25.6zM742.4 358.4h-460.8c-12.8 0-25.6 12.8-25.6 25.6s12.8 25.6 25.6 25.6h460.8c12.8 0 25.6-12.8 25.6-25.6s-12.8-25.6-25.6-25.6z" p-id="9302" fill=""></path><path d="M512 665.6c-12.8 0-25.6 12.8-25.6 25.6v51.2h-51.2c-12.8 0-25.6 12.8-25.6 25.6s12.8 25.6 25.6 25.6h51.2v51.2c0 12.8 12.8 25.6 25.6 25.6s25.6-12.8 25.6-25.6v-51.2h51.2c12.8 0 25.6-12.8 25.6-25.6s-12.8-25.6-25.6-25.6h-51.2v-51.2c0-12.8-12.8-25.6-25.6-25.6zM944.64 460.8l-94.72-366.08c-2.56-10.24-12.8-17.92-25.6-17.92h-627.2c-12.8 0-23.04 7.68-25.6 17.92L76.8 460.8c-2.56 7.68-2.56 17.92-2.56 25.6 0 84.48 69.12 153.6 153.6 153.6 64 0 117.76-38.4 140.8-92.16 23.04 53.76 76.8 92.16 140.8 92.16s117.76-38.4 140.8-92.16c23.04 53.76 76.8 92.16 140.8 92.16 84.48 0 153.6-69.12 153.6-153.6 2.56-7.68 2.56-17.92 0-25.6z m-151.04 128c-40.96 0-76.8-23.04-94.72-61.44-7.68-17.92-25.6-30.72-46.08-30.72s-38.4 12.8-46.08 30.72c-15.36 38.4-53.76 61.44-94.72 61.44s-76.8-23.04-94.72-61.44c-7.68-17.92-25.6-30.72-46.08-30.72s-38.4 12.8-46.08 30.72c-15.36 38.4-53.76 61.44-94.72 61.44-56.32 0-102.4-46.08-102.4-102.4v-15.36l89.6-343.04h586.24l89.6 343.04v15.36c2.56 56.32-43.52 102.4-99.84 102.4z" p-id="9303" fill=""></path></svg>
