<?xml version="1.0" standalone="no"?><!DOCTYPE svg PUBLIC "-//W3C//DTD SVG 1.1//EN" "http://www.w3.org/Graphics/SVG/1.1/DTD/svg11.dtd"><svg t="1673849821921" class="icon" viewBox="0 0 1024 1024" version="1.1" xmlns="http://www.w3.org/2000/svg" p-id="4714" xmlns:xlink="http://www.w3.org/1999/xlink" width="200" height="200"><path d="M229.216 485.44h254.688V230.72A225.6 225.6 0 0 0 258.56 5.44 254.976 254.976 0 0 0 3.904 260.096a225.6 225.6 0 0 0 225.312 225.344z m29.344-416a161.504 161.504 0 0 1 161.344 161.312v190.688H229.216a161.504 161.504 0 0 1-161.312-161.344A190.88 190.88 0 0 1 258.56 69.44zM5.44 765.44a254.976 254.976 0 0 0 254.688 254.656 225.6 225.6 0 0 0 225.312-225.312v-254.688H230.784A225.6 225.6 0 0 0 5.44 765.44z m416 29.344a161.504 161.504 0 0 1-161.312 161.312A190.88 190.88 0 0 1 69.44 765.44a161.504 161.504 0 0 1 161.344-161.344h190.656zM794.784 538.56h-254.688v254.688a225.6 225.6 0 0 0 225.344 225.312 254.944 254.944 0 0 0 254.656-254.656 225.6 225.6 0 0 0-225.312-225.344z m-29.344 416a161.504 161.504 0 0 1-161.344-161.312V602.56h190.688a161.504 161.504 0 0 1 161.312 161.344 190.88 190.88 0 0 1-190.656 190.656zM1018.56 258.56A254.944 254.944 0 0 0 763.904 3.904a225.6 225.6 0 0 0-225.344 225.312v254.688h254.656A225.6 225.6 0 0 0 1018.56 258.56z m-416-29.344a161.504 161.504 0 0 1 161.344-161.312A190.88 190.88 0 0 1 954.56 258.56a161.504 161.504 0 0 1-161.344 161.344H602.56z" fill="" p-id="4715"></path></svg>
