<?xml version="1.0" standalone="no"?><!DOCTYPE svg PUBLIC "-//W3C//DTD SVG 1.1//EN" "http://www.w3.org/Graphics/SVG/1.1/DTD/svg11.dtd"><svg t="1678961988918" class="icon" viewBox="0 0 1024 1024" version="1.1" xmlns="http://www.w3.org/2000/svg" p-id="53356" xmlns:xlink="http://www.w3.org/1999/xlink" width="200" height="200"><path d="M510.772 1005.454c-272.232 0-493.738-221.48-493.738-493.732 0-272.258 221.48-493.738 493.738-493.738 272.278 0 493.79 221.48 493.79 493.738C1004.562 783.974 783.024 1005.454 510.772 1005.454L510.772 1005.454zM510.772 59.13c-249.546 0-452.592 203.02-452.592 452.592 0 249.566 203.02 452.588 452.592 452.588 249.598 0 452.64-203.022 452.64-452.588C963.412 262.15 760.338 59.13 510.772 59.13L510.772 59.13z" fill="" p-id="53357"></path><path d="M735.834 292.616 647 292.616l0-31.286c0-8.638-7.024-15.646-15.674-15.646-8.662 0-15.68 7.008-15.68 15.646l0 31.286-198.582 0 0-31.286c0-8.638-7.036-15.646-15.686-15.646-8.65 0-15.68 7.008-15.68 15.646l0 31.286-99.28 0c-25.942 0-47.04 21.058-47.04 46.948l0 375.496c0 25.888 21.098 46.948 47.04 46.948l449.416 0c25.942 0 47.04-21.058 47.04-46.948L782.874 339.564C782.868 313.674 761.774 292.616 735.834 292.616L735.834 292.616zM751.512 715.058c0 8.626-7.028 15.656-15.68 15.656L286.418 730.714c-8.652 0-15.686-7.03-15.686-15.656L270.732 339.564c0-8.638 7.034-15.644 15.686-15.644l99.28 0 0 41.718c0 8.64 7.03 15.646 15.68 15.646 8.652 0 15.686-7.006 15.686-15.646L417.064 323.92l198.582 0 0 41.718c0 8.64 7.018 15.646 15.68 15.646 8.65 0 15.674-7.006 15.674-15.646L647 323.92l88.834 0c8.652 0 15.68 7.012 15.68 15.644L751.514 715.058 751.512 715.058zM364.796 514.168l52.268 0L417.064 462.54l-52.268 0L364.796 514.168 364.796 514.168zM490.228 514.168l52.25 0L542.478 462.54l-52.25 0L490.228 514.168 490.228 514.168zM615.646 514.168l52.25 0L667.896 462.54l-52.25 0L615.646 514.168 615.646 514.168zM364.796 638.09l52.268 0 0-51.634-52.268 0L364.796 638.09 364.796 638.09zM490.228 638.09l52.25 0 0-51.634-52.25 0L490.228 638.09 490.228 638.09zM615.646 638.09l52.25 0 0-51.634-52.25 0L615.646 638.09 615.646 638.09zM615.646 638.09" fill="" p-id="53358"></path></svg>
