<?xml version="1.0" standalone="no"?><!DOCTYPE svg PUBLIC "-//W3C//DTD SVG 1.1//EN" "http://www.w3.org/Graphics/SVG/1.1/DTD/svg11.dtd"><svg t="1675655034582" class="icon" viewBox="0 0 1024 1024" version="1.1" xmlns="http://www.w3.org/2000/svg" p-id="7619" xmlns:xlink="http://www.w3.org/1999/xlink" width="200" height="200"><path d="M851.356 97H172.114c-41.471 0.064-75.074 33.679-75.114 75.159v679.759C97 893.344 130.729 927 172.154 927h679.692c41.45-0.044 75.052-33.598 75.154-75.042V172.159c-0.166-41.63-34.015-75.261-75.644-75.159z m-301.63 754.729l-377.274 0.189-0.075-113.562-0.073-188.644-0.042-75.462-0.108-188.644-0.04-113.183h679.243l0.191-0.229 0.299 679.385-302.121 0.15z" fill="" p-id="7620"></path><path d="M319.42 289.591c-20.84 0-37.729 16.892-37.729 37.733 0 20.835 16.89 37.725 37.729 37.725 20.834 0 37.724-16.89 37.724-37.725 0-20.841-16.89-37.733-37.724-37.733zM319.42 478.237c-20.84 0-37.729 16.89-37.729 37.731 0 20.835 16.89 37.727 37.729 37.727 20.834 0 37.724-16.892 37.724-37.727 0-20.841-16.89-37.731-37.724-37.731zM319.42 666.881c-20.84 0-37.729 16.89-37.729 37.731 0 20.835 16.89 37.727 37.729 37.727 20.834 0 37.724-16.892 37.724-37.727 0-20.841-16.89-37.731-37.724-37.731zM706.844 289.591H442.746c-20.834 0-37.722 16.892-37.722 37.733 0 20.835 16.888 37.725 37.722 37.725h264.097c20.834 0 37.724-16.89 37.724-37.725 0-20.841-16.889-37.733-37.723-37.733zM706.844 666.881H442.746c-20.834 0-37.722 16.89-37.722 37.731 0 20.835 16.888 37.727 37.722 37.727h264.097c20.834 0 37.724-16.892 37.724-37.727 0-20.841-16.889-37.731-37.723-37.731zM706.844 478.237H442.746c-20.834 0-37.722 16.89-37.722 37.731 0 20.835 16.888 37.727 37.722 37.727h264.097c20.834 0 37.724-16.892 37.724-37.727 0-20.841-16.889-37.731-37.723-37.731z" fill="" p-id="7621"></path></svg>
