<?xml version="1.0" standalone="no"?><!DOCTYPE svg PUBLIC "-//W3C//DTD SVG 1.1//EN" "http://www.w3.org/Graphics/SVG/1.1/DTD/svg11.dtd"><svg t="1679278657025" class="icon" viewBox="0 0 1024 1024" version="1.1" xmlns="http://www.w3.org/2000/svg" p-id="57592" xmlns:xlink="http://www.w3.org/1999/xlink" width="200" height="200"><path d="M928.00032 512a95.68 95.68 0 0 0-32.256 5.952l-145.376-218.08A111.04 111.04 0 0 0 768.00032 240a112 112 0 1 0-224 0c0 28.288 10.848 53.856 28.16 73.568l-146.528 268.64A157.024 157.024 0 0 0 384.00032 576c-31.808 0-61.344 9.6-86.272 25.664l-117.344-140.8C187.55232 447.424 192.00032 432.32 192.00032 416a96 96 0 1 0-58.624 88.448l118.208 141.856A159.328 159.328 0 0 0 224.00032 736c0 88.224 71.776 160 160 160s160-71.776 160-160c0-50.784-24.224-95.584-61.248-124.896l143.744-263.52c9.472 2.592 19.232 4.416 29.504 4.416 16.288 0 31.648-3.648 45.6-9.888l144.416 216.608A95.04 95.04 0 0 0 832.00032 608a96 96 0 1 0 96-96zM384.00032 832c-52.928 0-96-43.072-96-96s43.072-96 96-96 96 43.072 96 96-43.072 96-96 96z" p-id="57593" fill=""></path></svg>
