<?xml version="1.0" standalone="no"?><!DOCTYPE svg PUBLIC "-//W3C//DTD SVG 1.1//EN" "http://www.w3.org/Graphics/SVG/1.1/DTD/svg11.dtd"><svg t="1678672235803" class="icon" viewBox="0 0 1024 1024" version="1.1" xmlns="http://www.w3.org/2000/svg" p-id="39199" xmlns:xlink="http://www.w3.org/1999/xlink" width="200" height="200"><path d="M176 224h672c12.8 0 24-11.2 24-24S860.8 176 848 176H176c-12.8 0-24 11.2-24 24S163.2 224 176 224zM848 384H176c-12.8 0-24 11.2-24 24S163.2 432 176 432h672c12.8 0 24-11.2 24-24S860.8 384 848 384zM416 592H176c-12.8 0-24 11.2-24 24S163.2 640 176 640h240c12.8 0 24-11.2 24-24S428.8 592 416 592zM416 800H176c-12.8 0-24 11.2-24 24S163.2 848 176 848h240c12.8 0 24-11.2 24-24S428.8 800 416 800zM777.6 744c19.2-24 30.4-54.4 30.4-86.4 0-75.2-60.8-137.6-137.6-137.6-75.2 0-137.6 60.8-137.6 137.6 0 75.2 60.8 137.6 137.6 137.6 25.6 0 49.6-6.4 68.8-19.2l67.2 67.2c4.8 4.8 11.2 6.4 17.6 6.4s12.8-1.6 17.6-6.4c9.6-9.6 9.6-24 0-33.6l-64-65.6z m-195.2-86.4c0-49.6 40-89.6 89.6-89.6 49.6 0 89.6 40 89.6 89.6 0 49.6-40 89.6-89.6 89.6-49.6-1.6-89.6-41.6-89.6-89.6z" p-id="39200" fill=""></path></svg>
